<svg width="1160" height="1166" viewBox="0 0 1160 1166" fill="none" xmlns="http://www.w3.org/2000/svg">
<path d="M453 0H707V1166H453V0Z" fill="white"/>
<path d="M799 175.776C799 85.3248 872.325 12 962.776 12H972.224C1062.68 12 1136 85.3248 1136 175.776C1136 266.226 1062.68 339.551 972.224 339.551H962.776C872.325 339.551 799 266.226 799 175.776Z" fill="white"/>
<path d="M799 625.776C799 535.325 872.325 462 962.776 462H972.224C1062.68 462 1136 535.325 1136 625.776C1136 716.226 1062.68 789.551 972.224 789.551H962.776C872.325 789.551 799 716.226 799 625.776Z" fill="white"/>
<path d="M0 1166V912H1160V1166H0Z" fill="white"/>
</svg>
