<svg width="1160" height="1164" viewBox="0 0 1160 1164" fill="none" xmlns="http://www.w3.org/2000/svg">
<rect x="717" y="1164" width="269" height="1163" transform="rotate(-180 717 1164)" fill="white" fill-opacity="0.2"/>
<rect x="269" y="1163" width="269" height="1163" transform="rotate(-180 269 1163)" fill="white" fill-opacity="0.2"/>
<rect x="1160" y="1164" width="269" height="1163" transform="rotate(-180 1160 1164)" fill="white" fill-opacity="0.2"/>
<rect x="264" y="253.782" width="264" height="252.783" transform="rotate(-180 264 253.782)" fill="white" fill-opacity="0.2"/>
<rect x="1160" y="1164" width="1160" height="252.697" transform="rotate(-180 1160 1164)" fill="white" fill-opacity="0.2"/>
<rect x="1160" y="709.306" width="1160" height="252.697" transform="rotate(-180 1160 709.306)" fill="white" fill-opacity="0.2"/>
<rect x="1160" y="254.696" width="1160" height="252.697" transform="rotate(-180 1160 254.696)" fill="white" fill-opacity="0.2"/>
<rect x="1160" y="253.782" width="264" height="252.783" transform="rotate(-180 1160 253.782)" fill="white" fill-opacity="0.2"/>
<rect x="264" y="708.391" width="264" height="252.783" transform="rotate(-180 264 708.391)" fill="white" fill-opacity="0.2"/>
<rect x="712" y="1163" width="264" height="252.783" transform="rotate(-180 712 1163)" fill="white" fill-opacity="0.2"/>
<rect x="712" y="708.391" width="264" height="252.783" transform="rotate(-180 712 708.391)" fill="white" fill-opacity="0.2"/>
<rect x="712" y="253.782" width="264" height="252.783" transform="rotate(-180 712 253.782)" fill="white" fill-opacity="0.2"/>
<rect x="712" y="455.61" width="264" height="454.609" transform="rotate(-180 712 455.61)" fill="white" fill-opacity="0.2"/>
<rect x="269" y="456.61" width="264" height="454.609" transform="rotate(-180 269 456.61)" fill="white" fill-opacity="0.2"/>
<rect x="1155" y="454.61" width="264" height="454.609" transform="rotate(-180 1155 454.61)" fill="white" fill-opacity="0.2"/>
<rect x="712" y="1162" width="264" height="454.609" transform="rotate(-180 712 1162)" fill="white" fill-opacity="0.2"/>
<rect x="269" y="1163" width="264" height="454.609" transform="rotate(-180 269 1163)" fill="white" fill-opacity="0.2"/>
<rect x="1155" y="1161" width="264" height="454.609" transform="rotate(-180 1155 1161)" fill="white" fill-opacity="0.2"/>
<rect x="712" y="1161" width="264" height="702.397" transform="rotate(-180 712 1161)" fill="white" fill-opacity="0.2"/>
<rect x="269" y="1163" width="264" height="703.396" transform="rotate(-180 269 1163)" fill="white" fill-opacity="0.2"/>
<rect x="1155" y="1160" width="264" height="703.396" transform="rotate(-180 1155 1160)" fill="white" fill-opacity="0.2"/>
<rect x="707" y="707.391" width="264" height="702.397" transform="rotate(-180 707 707.391)" fill="white" fill-opacity="0.2"/>
<rect x="264" y="709.391" width="264" height="703.396" transform="rotate(-180 264 709.391)" fill="white" fill-opacity="0.2"/>
<rect x="1150" y="706.395" width="264" height="703.396" transform="rotate(-180 1150 706.395)" fill="white" fill-opacity="0.2"/>
<rect x="1160" y="708.391" width="264" height="252.783" transform="rotate(-180 1160 708.391)" fill="white" fill-opacity="0.2"/>
<rect x="264" y="1163" width="264" height="252.783" transform="rotate(-180 264 1163)" fill="white" fill-opacity="0.2"/>
<rect x="448" y="1163" width="448" height="252.783" transform="rotate(-180 448 1163)" fill="white" fill-opacity="0.2"/>
<rect x="448" y="708.391" width="448" height="252.783" transform="rotate(-180 448 708.391)" fill="white" fill-opacity="0.2"/>
<rect x="448" y="254.782" width="448" height="252.783" transform="rotate(-180 448 254.782)" fill="white" fill-opacity="0.2"/>
<rect x="712" y="254.782" width="712" height="252.783" transform="rotate(-180 712 254.782)" fill="white" fill-opacity="0.2"/>
<rect x="712" y="709.391" width="712" height="252.783" transform="rotate(-180 712 709.391)" fill="white" fill-opacity="0.2"/>
<rect x="717" y="1163" width="712" height="252.783" transform="rotate(-180 717 1163)" fill="white" fill-opacity="0.2"/>
<rect x="1155" y="254.782" width="712" height="252.783" transform="rotate(-180 1155 254.782)" fill="white" fill-opacity="0.2"/>
<rect x="1155" y="709.391" width="712" height="252.783" transform="rotate(-180 1155 709.391)" fill="white" fill-opacity="0.2"/>
<rect x="1160" y="1163" width="712" height="252.783" transform="rotate(-180 1160 1163)" fill="white" fill-opacity="0.2"/>
<rect x="1160" y="1163" width="448" height="252.783" transform="rotate(-180 1160 1163)" fill="white" fill-opacity="0.2"/>
<rect x="1160" y="708.391" width="448" height="252.783" transform="rotate(-180 1160 708.391)" fill="white" fill-opacity="0.2"/>
<rect x="1160" y="254.782" width="448" height="252.783" transform="rotate(-180 1160 254.782)" fill="white" fill-opacity="0.2"/>
<rect x="1160" y="1163" width="264" height="252.783" transform="rotate(-180 1160 1163)" fill="white" fill-opacity="0.2"/>
</svg>
